IKResults
version=1
nRows=8
nColumns=79
inDegrees=yes
endheader
time	/jointset/ground_pelvis/pelvis_tilt/value	/jointset/ground_pelvis/pelvis_tilt/speed	/jointset/ground_pelvis/pelvis_list/value	/jointset/ground_pelvis/pelvis_list/speed	/jointset/ground_pelvis/pelvis_rotation/value	/jointset/ground_pelvis/pelvis_rotation/speed	/jointset/ground_pelvis/pelvis_tx/value	/jointset/ground_pelvis/pelvis_tx/speed	/jointset/ground_pelvis/pelvis_ty/value	/jointset/ground_pelvis/pelvis_ty/speed	/jointset/ground_pelvis/pelvis_tz/value	/jointset/ground_pelvis/pelvis_tz/speed	/jointset/hip_r/hip_flexion_r/value	/jointset/hip_r/hip_flexion_r/speed	/jointset/hip_r/hip_adduction_r/value	/jointset/hip_r/hip_adduction_r/speed	/jointset/hip_r/hip_rotation_r/value	/jointset/hip_r/hip_rotation_r/speed	/jointset/walker_knee_r/knee_angle_r/value	/jointset/walker_knee_r/knee_angle_r/speed	/jointset/patellofemoral_r/knee_angle_r_beta/value	/jointset/patellofemoral_r/knee_angle_r_beta/speed	/jointset/ankle_r/ankle_angle_r/value	/jointset/ankle_r/ankle_angle_r/speed	/jointset/subtalar_r/subtalar_angle_r/value	/jointset/subtalar_r/subtalar_angle_r/speed	/jointset/mtp_r/mtp_angle_r/value	/jointset/mtp_r/mtp_angle_r/speed	/jointset/hip_l/hip_flexion_l/value	/jointset/hip_l/hip_flexion_l/speed	/jointset/hip_l/hip_adduction_l/value	/jointset/hip_l/hip_adduction_l/speed	/jointset/hip_l/hip_rotation_l/value	/jointset/hip_l/hip_rotation_l/speed	/jointset/walker_knee_l/knee_angle_l/value	/jointset/walker_knee_l/knee_angle_l/speed	/jointset/patellofemoral_l/knee_angle_l_beta/value	/jointset/patellofemoral_l/knee_angle_l_beta/speed	/jointset/ankle_l/ankle_angle_l/value	/jointset/ankle_l/ankle_angle_l/speed	/jointset/subtalar_l/subtalar_angle_l/value	/jointset/subtalar_l/subtalar_angle_l/speed	/jointset/mtp_l/mtp_angle_l/value	/jointset/mtp_l/mtp_angle_l/speed	/jointset/back/lumbar_extension/value	/jointset/back/lumbar_extension/speed	/jointset/back/lumbar_bending/value	/jointset/back/lumbar_bending/speed	/jointset/back/lumbar_rotation/value	/jointset/back/lumbar_rotation/speed	/jointset/acromial_r/arm_flex_r/value	/jointset/acromial_r/arm_flex_r/speed	/jointset/acromial_r/arm_add_r/value	/jointset/acromial_r/arm_add_r/speed	/jointset/acromial_r/arm_rot_r/value	/jointset/acromial_r/arm_rot_r/speed	/jointset/elbow_r/elbow_flex_r/value	/jointset/elbow_r/elbow_flex_r/speed	/jointset/radioulnar_r/pro_sup_r/value	/jointset/radioulnar_r/pro_sup_r/speed	/jointset/radius_hand_r/wrist_flex_r/value	/jointset/radius_hand_r/wrist_flex_r/speed	/jointset/radius_hand_r/wrist_dev_r/value	/jointset/radius_hand_r/wrist_dev_r/speed	/jointset/acromial_l/arm_flex_l/value	/jointset/acromial_l/arm_flex_l/speed	/jointset/acromial_l/arm_add_l/value	/jointset/acromial_l/arm_add_l/speed	/jointset/acromial_l/arm_rot_l/value	/jointset/acromial_l/arm_rot_l/speed	/jointset/elbow_l/elbow_flex_l/value	/jointset/elbow_l/elbow_flex_l/speed	/jointset/radioulnar_l/pro_sup_l/value	/jointset/radioulnar_l/pro_sup_l/speed	/jointset/radius_hand_l/wrist_flex_l/value	/jointset/radius_hand_l/wrist_flex_l/speed	/jointset/radius_hand_l/wrist_dev_l/value	/jointset/radius_hand_l/wrist_dev_l/speed
     12.48333333	      0.00000000	      0.00000000	      0.00000000	      0.00000000	      0.00000000	      0.00000000	      0.00000000	      0.00000000	      0.93000000	      0.00000000	      0.00000000	      0.00000000	     18.82100068	      0.00000000	    -14.52799972	      0.00000000	     12.45299929	      0.00000000	     17.54700042	      0.00000000	      0.30625293	      0.00000000	      7.21699999	      0.00000000	      0.00000000	      0.00000000	      0.00000000	      0.00000000	     77.24324321	      0.00000000	    -49.99631951	      0.00000000	    -11.90602273	      0.00000000	      0.01612595	      0.00000000	      0.00028145	      0.00000000	      0.00000000	      0.00000000	      0.00000000	      0.00000000	      0.00000000	      0.00000000	      0.00000000	      0.00000000	      0.00000000	      0.00000000	      0.00000000	      0.00000000	      0.00000000	      0.00000000	      0.00000000	      0.00000000	      0.00000000	      0.00000000	      0.00000000	      0.00000000	      0.00000000	      0.00000000	      0.00000000	      0.00000000	      0.00000000	      0.00000000	    -13.98532652	      0.00000000	      2.63129079	      0.00000000	    -64.95183096	      0.00000000	      0.00547166	      0.00000000	     44.91630337	      0.00000000	      0.00000000	      0.00000000	      0.00000000	      0.00000000
     12.50000000	      0.00000000	      0.00000000	      0.00000000	      0.00000000	      0.00000000	      0.00000000	      0.00000000	      0.00000000	      0.93000000	      0.00000000	      0.00000000	      0.00000000	     18.82100068	      0.00000000	    -14.52799972	      0.00000000	     12.45299929	      0.00000000	     17.54700042	      0.00000000	      0.30625293	      0.00000000	      7.21699999	      0.00000000	      0.00000000	      0.00000000	      0.00000000	      0.00000000	     79.08617840	      0.00000000	    -49.99609448	      0.00000000	    -10.68829686	      0.00000000	      0.01720285	      0.00000000	      0.00030025	      0.00000000	      0.00000000	      0.00000000	      0.00000000	      0.00000000	      0.00000000	      0.00000000	      0.00000000	      0.00000000	      0.00000000	      0.00000000	      0.00000000	      0.00000000	      0.00000000	      0.00000000	      0.00000000	      0.00000000	      0.00000000	      0.00000000	      0.00000000	      0.00000000	      0.00000000	      0.00000000	      0.00000000	      0.00000000	      0.00000000	      0.00000000	    -13.83266667	      0.00000000	      1.92615204	      0.00000000	    -65.14962968	      0.00000000	      0.00563236	      0.00000000	     44.91797606	      0.00000000	      0.00000000	      0.00000000	      0.00000000	      0.00000000
     12.51666667	      0.00000000	      0.00000000	      0.00000000	      0.00000000	      0.00000000	      0.00000000	      0.00000000	      0.00000000	      0.93000000	      0.00000000	      0.00000000	      0.00000000	     18.82100068	      0.00000000	    -14.52799972	      0.00000000	     12.45299929	      0.00000000	     17.54700042	      0.00000000	      0.30625293	      0.00000000	      7.21699999	      0.00000000	      0.00000000	      0.00000000	      0.00000000	      0.00000000	     80.75970817	      0.00000000	    -49.99583741	      0.00000000	     -9.60173475	      0.00000000	      0.01818754	      0.00000000	      0.00031743	      0.00000000	      0.00000000	      0.00000000	      0.00000000	      0.00000000	      0.00000000	      0.00000000	      0.00000000	      0.00000000	      0.00000000	      0.00000000	      0.00000000	      0.00000000	      0.00000000	      0.00000000	      0.00000000	      0.00000000	      0.00000000	      0.00000000	      0.00000000	      0.00000000	      0.00000000	      0.00000000	      0.00000000	      0.00000000	      0.00000000	      0.00000000	    -13.69707855	      0.00000000	      1.23652490	      0.00000000	    -65.36143417	      0.00000000	      0.00581119	      0.00000000	     44.91954007	      0.00000000	      0.00000000	      0.00000000	      0.00000000	      0.00000000
     12.53333333	      0.00000000	      0.00000000	      0.00000000	      0.00000000	      0.00000000	      0.00000000	      0.00000000	      0.00000000	      0.93000000	      0.00000000	      0.00000000	      0.00000000	     18.82100068	      0.00000000	    -14.52799972	      0.00000000	     12.45299929	      0.00000000	     17.54700042	      0.00000000	      0.30625293	      0.00000000	      7.21699999	      0.00000000	      0.00000000	      0.00000000	      0.00000000	      0.00000000	     82.32986881	      0.00000000	    -49.99553594	      0.00000000	     -8.59743793	      0.00000000	      0.01909672	      0.00000000	      0.00033330	      0.00000000	      0.00000000	      0.00000000	      0.00000000	      0.00000000	      0.00000000	      0.00000000	      0.00000000	      0.00000000	      0.00000000	      0.00000000	      0.00000000	      0.00000000	      0.00000000	      0.00000000	      0.00000000	      0.00000000	      0.00000000	      0.00000000	      0.00000000	      0.00000000	      0.00000000	      0.00000000	      0.00000000	      0.00000000	      0.00000000	      0.00000000	    -13.55806295	      0.00000000	      0.53491888	      0.00000000	    -65.58356211	      0.00000000	      0.00599668	      0.00000000	     44.92100302	      0.00000000	      0.00000000	      0.00000000	      0.00000000	      0.00000000
     12.55000000	      0.00000000	      0.00000000	      0.00000000	      0.00000000	      0.00000000	      0.00000000	      0.00000000	      0.00000000	      0.93000000	      0.00000000	      0.00000000	      0.00000000	     18.82100068	      0.00000000	    -14.52799972	      0.00000000	     12.45299929	      0.00000000	     17.54700042	      0.00000000	      0.30625293	      0.00000000	      7.21699999	      0.00000000	      0.00000000	      0.00000000	      0.00000000	      0.00000000	     83.83322168	      0.00000000	    -49.99516824	      0.00000000	     -7.59806863	      0.00000000	      0.02007309	      0.00000000	      0.00035034	      0.00000000	      0.00000000	      0.00000000	      0.00000000	      0.00000000	      0.00000000	      0.00000000	      0.00000000	      0.00000000	      0.00000000	      0.00000000	      0.00000000	      0.00000000	      0.00000000	      0.00000000	      0.00000000	      0.00000000	      0.00000000	      0.00000000	      0.00000000	      0.00000000	      0.00000000	      0.00000000	      0.00000000	      0.00000000	      0.00000000	      0.00000000	    -13.41222999	      0.00000000	     -0.16591039	      0.00000000	    -65.81868770	      0.00000000	      0.00620219	      0.00000000	     44.92239360	      0.00000000	      0.00000000	      0.00000000	      0.00000000	      0.00000000
     12.56666667	     -0.00000000	      0.00000000	     -0.00000000	      0.00000000	      0.00000000	      0.00000000	      0.00000000	      0.00000000	      0.93000000	      0.00000000	     -0.00000000	      0.00000000	     18.82100068	      0.00000000	    -14.52799972	      0.00000000	     12.45299929	      0.00000000	     17.54700042	      0.00000000	      0.30625293	      0.00000000	      7.21699999	      0.00000000	     -0.00000000	      0.00000000	      0.00000000	      0.00000000	     85.23271587	      0.00000000	    -49.99470002	      0.00000000	     -6.52609960	      0.00000000	      0.02116206	      0.00000000	      0.00036935	      0.00000000	      0.00000000	      0.00000000	      0.00000000	      0.00000000	      0.00000000	      0.00000000	      0.00000000	      0.00000000	     -0.00000000	      0.00000000	      0.00000000	      0.00000000	     -0.00000000	      0.00000000	      0.00000000	      0.00000000	     -0.00000000	      0.00000000	      0.00000000	      0.00000000	      0.00000000	      0.00000000	      0.00000000	      0.00000000	     -0.00000000	      0.00000000	    -13.27033492	      0.00000000	     -0.86953870	      0.00000000	    -66.03891670	      0.00000000	      0.00643842	      0.00000000	     44.92382121	      0.00000000	     -0.00000000	      0.00000000	      0.00000000	      0.00000000
     12.58333333	      0.00000000	      0.00000000	      0.00000000	      0.00000000	     -0.00000000	      0.00000000	      0.00000000	      0.00000000	      0.93000000	      0.00000000	     -0.00000000	      0.00000000	     18.82100068	      0.00000000	    -14.52799972	      0.00000000	     12.45299929	      0.00000000	     17.54700042	      0.00000000	      0.30625293	      0.00000000	      7.21699999	      0.00000000	     -0.00000000	      0.00000000	      0.00000000	      0.00000000	     86.46219989	      0.00000000	    -49.99409983	      0.00000000	     -5.36387021	      0.00000000	      0.02221398	      0.00000000	      0.00038771	      0.00000000	     -0.00000000	      0.00000000	     -0.00000000	      0.00000000	     -0.00000000	      0.00000000	      0.00000000	      0.00000000	      0.00000000	      0.00000000	     -0.00000000	      0.00000000	      0.00000000	      0.00000000	     -0.00000000	      0.00000000	     -0.00000000	      0.00000000	      0.00000191	      0.00000000	      0.00000191	      0.00000000	      0.00000000	      0.00000000	      0.00000000	      0.00000000	    -13.10697855	      0.00000000	     -1.60473422	      0.00000000	    -66.25367986	      0.00000000	      0.00669501	      0.00000000	     44.92531331	      0.00000000	     -0.00000000	      0.00000000	      0.00000000	      0.00000000
     12.60000000	      0.00000000	      0.00000000	      0.00000000	      0.00000000	      0.00000000	      0.00000000	      0.00000000	      0.00000000	      0.93000000	      0.00000000	      0.00000000	      0.00000000	     18.82100068	      0.00000000	    -14.52799972	      0.00000000	     12.45299929	      0.00000000	     17.54700042	      0.00000000	      0.30625293	      0.00000000	      7.21699999	      0.00000000	      0.00000000	      0.00000000	      0.00000000	      0.00000000	     87.70499531	      0.00000000	    -49.99331144	      0.00000000	     -3.90942901	      0.00000000	      0.02384690	      0.00000000	      0.00041621	      0.00000000	      0.00000000	      0.00000000	      0.00000000	      0.00000000	      0.00000000	      0.00000000	      0.00000000	      0.00000000	      0.00000000	      0.00000000	      0.00000000	      0.00000000	      0.00000000	      0.00000000	      0.00000000	      0.00000000	      0.00000000	      0.00000000	      0.00000000	      0.00000000	      0.00000000	      0.00000000	      0.00000000	      0.00000000	      0.00000000	      0.00000000	    -12.93068469	      0.00000000	     -2.33739578	      0.00000000	    -66.47235069	      0.00000000	      0.00701445	      0.00000000	     44.92709676	      0.00000000	      0.00000000	      0.00000000	      0.00000000	      0.00000000
